<svg xmlns="http://www.w3.org/2000/svg" width="1440" height="832" viewBox="0 0 1440 832" fill="none">
<path fill-rule="evenodd" clip-rule="evenodd" d="M474.118 108.12C315.914 161.17 96.7395 295.456 -58.3552 404.936C-77.5533 418.488 -104.102 413.922 -117.654 394.737C-131.206 375.552 -126.628 349.014 -107.43 335.462C48.7436 225.219 276.402 84.7103 447.075 27.4785C490.042 13.0705 531.478 3.20408 568.508 1.11953C604.931 -0.930873 642.673 4.25756 672.493 26.3133C704.1 49.6913 718.61 85.7483 720.103 127.318C720.824 147.402 718.599 169.554 713.604 193.779C1041.5 91.8538 1266.76 100.126 1416.3 192.273C1571.79 288.091 1630.6 465.201 1647.19 656.473C1649.22 679.873 1631.88 700.493 1608.47 702.528C1585.06 704.564 1564.43 687.245 1562.41 663.845C1546.57 481.209 1492.19 338.977 1371.62 264.683C1249.95 189.711 1046.14 174.558 707.71 284.92C699.332 287.652 691.059 290.388 682.89 293.128C582.331 559.407 464.717 703.441 354.275 774.183C240.795 846.871 136.168 840.814 75.8214 810.169C37.9448 790.934 12.7739 752.803 9.34895 705.723C5.97849 659.391 23.5154 607.453 62.8975 554.594C139.569 451.683 306.437 334.673 616.707 225.906C630.939 183.102 635.836 152.035 635.059 130.398C634.217 106.967 627.137 98.5981 621.859 94.6945C614.793 89.4686 600.355 84.5194 573.265 86.0445C546.781 87.5354 513.37 94.9574 474.118 108.12ZM575.957 331.369C317.937 429.906 187.981 529.094 131.144 605.383C99.9121 647.302 92.7627 679.446 94.2234 699.526C95.6296 718.857 104.807 729.468 114.387 734.332C144.694 749.723 217.209 760.967 308.377 702.571C389.527 650.592 486.369 542.424 575.957 331.369Z" fill="url(#paint0_linear_951_6006)"/>
<path fill-rule="evenodd" clip-rule="evenodd" d="M474.118 108.12C315.914 161.17 96.7395 295.456 -58.3552 404.936C-77.5533 418.488 -104.102 413.922 -117.654 394.737C-131.206 375.552 -126.628 349.014 -107.43 335.462C48.7436 225.219 276.402 84.7103 447.075 27.4785C490.042 13.0705 531.478 3.20408 568.508 1.11953C604.931 -0.930873 642.673 4.25756 672.493 26.3133C704.1 49.6913 718.61 85.7483 720.103 127.318C720.824 147.402 718.599 169.554 713.604 193.779C1041.5 91.8538 1266.76 100.126 1416.3 192.273C1571.79 288.091 1630.6 465.201 1647.19 656.473C1649.22 679.873 1631.88 700.493 1608.47 702.528C1585.06 704.564 1564.43 687.245 1562.41 663.845C1546.57 481.209 1492.19 338.977 1371.62 264.683C1249.95 189.711 1046.14 174.558 707.71 284.92C699.332 287.652 691.059 290.388 682.89 293.128C582.331 559.407 464.717 703.441 354.275 774.183C240.795 846.871 136.168 840.814 75.8214 810.169C37.9448 790.934 12.7739 752.803 9.34895 705.723C5.97849 659.391 23.5154 607.453 62.8975 554.594C139.569 451.683 306.437 334.673 616.707 225.906C630.939 183.102 635.836 152.035 635.059 130.398C634.217 106.967 627.137 98.5981 621.859 94.6945C614.793 89.4686 600.355 84.5194 573.265 86.0445C546.781 87.5354 513.37 94.9574 474.118 108.12ZM575.957 331.369C317.937 429.906 187.981 529.094 131.144 605.383C99.9121 647.302 92.7627 679.446 94.2234 699.526C95.6296 718.857 104.807 729.468 114.387 734.332C144.694 749.723 217.209 760.967 308.377 702.571C389.527 650.592 486.369 542.424 575.957 331.369Z" fill="url(#paint1_linear_951_6006)"/>
<defs>
<linearGradient id="paint0_linear_951_6006" x1="-20.6921" y1="698.226" x2="1524.24" y2="194.425" gradientUnits="userSpaceOnUse">
<stop stop-color="#FF1781"/>
<stop offset="0.333444" stop-color="#FF07D8"/>
<stop offset="0.678551" stop-color="#FF4C10"/>
<stop offset="1" stop-color="#FFE100"/>
</linearGradient>
<linearGradient id="paint1_linear_951_6006" x1="654.5" y1="822.5" x2="471.5" y2="-129" gradientUnits="userSpaceOnUse">
<stop/>
<stop offset="1" stop-opacity="0"/>
</linearGradient>
</defs>
</svg>
