<svg width="830" height="830" viewBox="0 0 830 830" fill="none" xmlns="http://www.w3.org/2000/svg">
<circle cx="415" cy="415" r="414" stroke="#B1B1B1" stroke-linecap="round" stroke-linejoin="round" stroke-dasharray="8 8"/>
<circle cx="415" cy="415" r="339.344" stroke="#B1B1B1" stroke-linecap="round" stroke-linejoin="round" stroke-dasharray="8 8"/>
<circle cx="41.7212" cy="235.147" r="11.3115" fill="#40C700" fill-opacity="0.3"/>
<circle cx="41.7214" cy="235.147" r="5.65574" fill="#40C700"/>
<circle cx="295.098" cy="16.8359" r="11.3115" fill="#F17912" fill-opacity="0.3"/>
<circle cx="295.098" cy="16.8359" r="5.65574" fill="#F17912"/>
<circle cx="743.033" cy="162.754" r="11.3115" fill="#33A5E2" fill-opacity="0.3"/>
<circle cx="743.033" cy="162.754" r="5.65574" fill="#33A5E2"/>
<circle cx="709.098" cy="710.229" r="11.3115" fill="#ED4092" fill-opacity="0.3"/>
<circle cx="709.099" cy="710.229" r="5.65574" fill="#ED4092"/>
<circle cx="102.803" cy="693.262" r="11.3115" fill="#C70000" fill-opacity="0.3"/>
<circle cx="102.803" cy="693.262" r="5.65574" fill="#C70000"/>
<circle cx="85.8361" cy="491.918" r="11.3115" fill="#603007" fill-opacity="0.3"/>
<circle cx="85.8361" cy="491.918" r="5.65574" fill="#603007"/>
<circle cx="180.852" cy="168.41" r="11.3115" fill="#F158AA" fill-opacity="0.3"/>
<circle cx="180.852" cy="168.41" r="5.65574" fill="#F158AA"/>
<circle cx="754.344" cy="426.311" r="11.3115" fill="#F17912" fill-opacity="0.3"/>
<circle cx="754.344" cy="426.311" r="5.65574" fill="#F17912"/>
<circle cx="403.688" cy="754.344" r="11.3115" fill="#33A5E2" fill-opacity="0.3"/>
<circle cx="403.688" cy="754.344" r="5.65574" fill="#33A5E2"/>
</svg>
