<?xml version="1.0" standalone="no"?>
<!DOCTYPE svg PUBLIC "-//W3C//DTD SVG 20010904//EN"
 "http://www.w3.org/TR/2001/REC-SVG-20010904/DTD/svg10.dtd">
<svg version="1.0" xmlns="http://www.w3.org/2000/svg"
 width="300.000000pt" height="300.000000pt" viewBox="0 0 300.000000 300.000000"
 preserveAspectRatio="xMidYMid meet">
<metadata>
Created by potrace 1.16, written by Peter Selinger 2001-2019
</metadata>
<g transform="translate(0.000000,300.000000) scale(0.100000,-0.100000)"
fill="#000000" stroke="none">
<path d="M1364 2531 c10 -16 -84 -129 -147 -177 -95 -71 -225 -129 -312 -139
-11 -2 -38 -7 -60 -13 -22 -6 -56 -11 -75 -11 -19 -1 -47 -3 -62 -5 -16 -1
-52 -4 -80 -5 l-53 -2 75 -35 c136 -64 205 -130 215 -206 3 -27 -22 -148 -42
-198 -3 -8 -7 -24 -8 -35 -1 -11 -5 -30 -9 -42 -9 -29 -15 -60 -22 -113 -3
-24 -8 -49 -12 -54 -3 -6 -7 -24 -9 -41 -1 -16 -5 -46 -9 -65 -3 -19 -8 -53
-11 -75 -2 -21 -6 -42 -8 -45 -2 -4 0 -20 5 -36 4 -16 9 -24 9 -17 1 6 14 40
30 75 45 99 171 406 171 417 0 6 4 11 9 11 9 0 19 -42 27 -114 2 -17 6 -47 9
-66 3 -19 7 -55 9 -80 2 -25 8 -83 12 -130 l8 -85 7 65 c4 36 11 106 15 155 4
50 8 106 10 125 4 45 13 158 18 240 2 36 7 101 11 145 3 44 8 106 10 139 4 65
-3 56 152 216 51 52 100 105 109 118 l16 23 35 -41 c20 -23 70 -76 112 -118
139 -140 134 -132 138 -214 2 -40 5 -89 7 -108 2 -19 6 -78 10 -130 4 -52 9
-117 11 -145 2 -27 11 -142 20 -255 17 -212 23 -258 24 -179 1 67 29 324 42
387 6 28 15 52 20 52 5 0 9 -5 9 -11 0 -7 46 -122 103 -258 90 -216 102 -241
105 -208 6 66 -61 421 -114 612 -25 89 -15 128 49 190 45 44 131 94 225 131
16 6 -6 9 -75 10 -147 2 -227 13 -332 46 -159 49 -296 150 -363 267 -13 23
-27 41 -31 41 -5 0 -6 -4 -3 -9z"/>
<path d="M2740 1083 l0 -347 36 35 c36 35 114 177 114 208 0 10 3 21 6 24 13
13 15 101 4 156 -18 87 -107 249 -147 265 -10 4 -13 -68 -13 -341z"/>
<path d="M956 1008 c-2 -7 -9 -32 -15 -55 -7 -24 -43 -104 -81 -179 -38 -74
-64 -134 -57 -132 7 3 24 27 39 54 39 70 59 84 128 84 l57 0 28 -65 c15 -36
30 -65 34 -65 3 0 20 11 36 25 28 23 29 24 8 25 -32 0 -46 27 -97 180 -29 87
-51 136 -61 138 -8 2 -17 -2 -19 -10z"/>
<path d="M1252 997 c-8 -10 -7 -20 7 -41 18 -26 18 -31 0 -131 -11 -58 -25
-131 -33 -165 -8 -33 -10 -60 -6 -60 10 0 31 68 61 198 11 51 25 90 30 86 5
-3 40 -42 78 -88 113 -135 140 -161 153 -148 8 8 13 72 16 182 4 155 3 170
-12 170 -22 0 -56 -18 -56 -30 0 -5 7 -7 15 -4 10 4 18 -3 25 -21 11 -29 14
-165 4 -214 l-7 -32 -52 58 c-104 115 -163 195 -158 214 4 14 0 19 -14 19 -10
0 -24 5 -29 10 -8 8 -14 7 -22 -3z"/>
<path d="M2125 996 c-41 -18 -65 -47 -71 -87 -7 -53 14 -82 70 -96 56 -14 69
-27 60 -63 -17 -75 -134 -109 -134 -39 0 11 -4 19 -10 19 -5 0 -10 -16 -10
-35 0 -29 5 -37 27 -46 93 -35 203 66 172 158 -11 36 -26 45 -96 63 -38 10
-43 14 -43 40 0 40 37 65 85 56 30 -6 35 -4 35 12 0 33 -35 40 -85 18z"/>
<path d="M390 990 c0 -5 5 -10 10 -10 6 0 10 -63 10 -169 l0 -169 30 11 c29
11 41 27 20 27 -7 0 -10 25 -8 68 l3 67 65 3 c36 2 80 0 98 -3 l34 -6 -2 -72
c-1 -40 -2 -75 -1 -79 1 -4 15 -2 32 4 22 7 27 14 20 21 -14 14 -15 297 -1
297 6 0 10 5 10 10 0 6 -18 10 -40 10 -40 0 -49 -7 -29 -27 5 -5 9 -34 7 -64
l-3 -54 -99 -3 -99 -3 7 63 c3 35 11 65 16 66 26 9 5 22 -35 22 -25 0 -45 -4
-45 -10z"/>
<path d="M1710 988 c-48 -10 -77 -28 -46 -28 17 0 18 -10 14 -141 -3 -119 -6
-143 -21 -154 -9 -7 -17 -14 -17 -16 0 -2 46 -2 102 1 122 7 156 22 193 83 52
90 39 207 -29 248 -35 21 -118 24 -196 7z m158 -34 c35 -24 52 -68 52 -134 0
-55 -3 -64 -34 -98 -33 -35 -37 -37 -98 -37 l-63 0 -3 134 c-2 101 1 136 10
143 22 14 112 9 136 -8z"/>
</g>
</svg>
